<svg xmlns="http://www.w3.org/2000/svg" width="36" height="36" viewBox="0 0 36 36">
  <g id="ic_account" transform="translate(-1273.185 -686)">
    <g id="Rectangle_19" data-name="Rectangle 19" transform="translate(1273.185 686)" fill="rgba(255,255,255,0.07)" stroke="rgba(255,255,255,0.15)" stroke-width="1">
      <rect width="36" height="36" rx="18" stroke="none"/>
      <rect x="0.5" y="0.5" width="35" height="35" rx="17.5" fill="none"/>
    </g>
    <g id="_2575866141543238941" data-name="2575866141543238941" transform="translate(1284.911 694.389)">
      <path id="Path_10" data-name="Path 10" d="M11.173,19.633a.728.728,0,0,1-.728-.728V17.513a2.06,2.06,0,0,0-2.058-2.058H3.513a2.058,2.058,0,0,0-2.058,2.058v1.393a.728.728,0,1,1-1.455,0V17.513A3.513,3.513,0,0,1,3.513,14H8.387A3.517,3.517,0,0,1,11.9,17.513v1.393A.728.728,0,0,1,11.173,19.633Z" transform="translate(0.323 -2.8)" fill="#fff"/>
      <path id="Ellipse_12" data-name="Ellipse 12" d="M2.513-1A3.513,3.513,0,1,1-1,2.513,3.517,3.517,0,0,1,2.513-1Zm0,5.571A2.058,2.058,0,1,0,.455,2.513,2.06,2.06,0,0,0,2.513,4.571Z" transform="translate(3.761 2.388)" fill="#fff"/>
    </g>
  </g>
</svg>
