<svg xmlns="http://www.w3.org/2000/svg" width="251.617" height="98.832" viewBox="0 0 251.617 98.832">
  <g id="logo_dark" transform="translate(-2380.65 4.623)">
    <g id="Group_1" data-name="Group 1">
      <path id="Union_7" data-name="Union 7" d="M10.6,52.887l1.215-4.64H22.4l1.543-5.861H13.346l1.15-4.394H44.153a3.973,3.973,0,0,0,1.637-.539A3.745,3.745,0,0,0,47.557,34.2a3.556,3.556,0,0,0-1.637-3.377,4.684,4.684,0,0,0-1.766-.662h-.008c-.43,0-4.346.007-9.162.007-2.971,0-5.7,0-8.107-.007a5.827,5.827,0,0,1-4.336-2.06,8.739,8.739,0,0,1-1.626-3.154,16.452,16.452,0,0,1-.618-3.452,22.454,22.454,0,0,1,.033-3.924h.024a26.6,26.6,0,0,1,2.4-7.785A17.212,17.212,0,0,1,24.781,6.3a15.661,15.661,0,0,1,4.386-4A16.73,16.73,0,0,1,36.272,0c3.5.049,11.41.074,23.519.074C80.54.074,106.395,0,106.654,0l-.034.149c-.094.41-.382,1.66-.745,3.195H95.759L94.215,9.2h10.207a12.752,12.752,0,0,1-1.064,3.27c-.146.049-7.322.073-21.328.073-12.618,0-28.473-.02-40.736-.039l-2.188,5.27,12.921.144c.011,0,.267-.019.7-.019a19.216,19.216,0,0,1,8.8,2.122,13.023,13.023,0,0,1,4.731,4.314A16.258,16.258,0,0,1,68.7,32.3,18.759,18.759,0,0,1,66.462,42.6a19.381,19.381,0,0,1-5.771,6.29,26.7,26.7,0,0,1-5.935,3.14,21.463,21.463,0,0,1-2.728.854ZM0,45.061a3.532,3.532,0,0,1,6.94-.913l14.266.02L20.674,45.9H6.958A3.532,3.532,0,0,1,0,45.061ZM111.34,7.186,97.073,7.165l.532-1.734h13.716a3.518,3.518,0,1,1,.019,1.755Z" transform="translate(2431.976 9.621)" fill="#1f2020"/>
      <path id="Subtraction_3" data-name="Subtraction 3" d="M5.173,52.6c-3.182,0-4.909-.019-5.134-.056a.03.03,0,0,1-.02-.015C-.5,51.7,9.694,17.542,9.8,17.2h18.73L24.893,30.035,37.756,19.345,48.6,30.322,58.869,0h5.982L61.929,8.311h5.887L70.853,0h6.129l-16.6,52.544H42.907l-11.1-10.257L18.536,52.544h-.065C16.561,52.558,9.957,52.6,5.173,52.6Z" transform="translate(2503.958 9.993)" fill="#dd7740"/>
      <path id="Union_8" data-name="Union 8" d="M0,3.525a3.516,3.516,0,0,1,6.924-.877l13.936.036.675,1.958-14.616-.2A3.519,3.519,0,0,1,0,3.525Z" transform="matrix(-0.326, 0.946, -0.946, -0.326, 2579.972, -2.325)" fill="#dd7740"/>
    </g>
    <path id="Path_25" data-name="Path 25" d="M7.41-7.638c-.817,0-1.216-.209-1.216-.722,0-.76.456-1.045,1.52-1.045H16.53l3.116-3.306H8.607c-4.446,0-6.213,1.957-6.213,4.541,0,1.843,1.292,3.059,4.18,3.059h6.935c.8,0,1.2.247,1.2.76,0,.741-.456,1.083-1.52,1.083H3.553L.456,0H12.293c4.522,0,6.251-2,6.251-4.75,0-1.9-1.463-2.888-4.218-2.888Zm17.746,4.37L25.46-5h7.828l2.736-2.888H25.973l.266-1.52h8.227L37.6-12.711H22.895L20.634,0H32.87l3.116-3.268Zm20.558,0c-1.919,0-3.23-1.045-3.23-2.622,0-2.014,1.976-3.515,4.313-3.515h6.384L56.3-12.711H47.386c-4.864,0-8.854,2.926-8.854,7.106C38.532-2.394,41.173,0,45.144,0h6.384l3.1-3.268Zm29.6-9.443H71.364L70.091-5.548c-.323,1.786-1.368,2.489-4.408,2.489-3.477,0-4.465-.456-4.465-1.786a4.97,4.97,0,0,1,.057-.7l1.292-7.163H58.634L57.361-5.548a6.7,6.7,0,0,0-.114,1.2c0,3.04,2.413,4.56,7.866,4.56,5.3,0,8.246-1.919,8.93-5.757ZM92.549-2.47a13.292,13.292,0,0,0-1.463-1.672,4.841,4.841,0,0,0,4.1-4.712c0-3.04-3.154-3.857-5.814-3.857h-8.17L78.052-9.405H89.11c1.216,0,1.938.418,1.938,1.254,0,1.026-1.14,1.653-2.451,1.653H77.539L76.4,0h3.933l.589-3.363h6.042L89.2,0h5.263Zm8.987-.8L101.84-5h7.828L112.4-7.885H102.353l.266-1.52h8.227l3.135-3.306H99.275L97.014,0H109.25l3.116-3.268ZM137.674-1.14A1.9,1.9,0,0,0,139.593.209,2.757,2.757,0,0,0,142.1-1.539l5.282-11.172h-3.857l-1.995,4.427c-.646,1.406-1.1,2.489-1.463,3.5-.266-.855-.57-1.748-1.178-3.5L137.75-11.5a1.765,1.765,0,0,0-2.014-1.425,2.653,2.653,0,0,0-2.489,1.425L130.967-8.3c-1.2,1.653-1.824,2.641-2.394,3.515-.038-1.026-.133-2.071-.247-3.5l-.418-4.427h-3.914l1.235,11.172a1.8,1.8,0,0,0,1.9,1.748,2.891,2.891,0,0,0,2.394-1.349L132.2-4.75c1.463-1.957,2.128-2.888,2.7-3.8a40.124,40.124,0,0,0,1.368,3.819Zm20.52-11.78c-7.125,0-10.583,2.508-10.583,7.733,0,3.686,2.774,5.4,8.265,5.4,7.125,0,10.583-2.527,10.583-7.752C166.459-11.229,163.685-12.92,158.194-12.92ZM156.446-3.1c-3.42,0-4.883-.418-4.883-2.47,0-3.268.931-4.047,6.042-4.047,3.458,0,4.9.418,4.9,2.47C162.507-3.9,161.557-3.1,156.446-3.1Zm28.006.627a13.292,13.292,0,0,0-1.463-1.672,4.841,4.841,0,0,0,4.1-4.712c0-3.04-3.154-3.857-5.814-3.857h-8.17l-3.154,3.306h11.058c1.216,0,1.938.418,1.938,1.254,0,1.026-1.14,1.653-2.451,1.653H169.442L168.3,0h3.933l.589-3.363h6.042L181.108,0h5.263ZM200.431-4.2c-1.406-1.33-2.261-2.033-2.888-2.527.893-.494,1.767-1.064,3.705-2.337l5.491-3.648h-5.7l-4.218,3.1c-1.311.969-2.128,1.615-2.7,2.071.133-.665.323-1.444.475-2.223l.513-2.945h-3.933L188.917,0h3.952l.646-3.648.266-1.824a28.2,28.2,0,0,0,1.976,2.128L199.006,0h5.947Zm13.186-8.512H209.7L207.442,0h3.933ZM227.81.209a2.588,2.588,0,0,0,2.565-2.394l1.881-10.526h-3.572l-1.33,7.467L220.8-12.236a1.806,1.806,0,0,0-1.463-.684,2.549,2.549,0,0,0-2.584,2.375L214.909,0h3.572l1.311-7.467,6.555,6.992A1.762,1.762,0,0,0,227.81.209Zm12.046-5.32h6.593l-.323,1.843H241.3c-1.957,0-3.249-1.026-3.249-2.6,0-2.033,1.995-3.534,4.332-3.534h6.555l3.135-3.306h-9.1c-4.864,0-8.854,2.926-8.854,7.106,0,3.211,2.641,5.605,6.612,5.605h8.721l1.406-7.942h-8.132Z" transform="translate(2380.194 94)" fill="#1f2020"/>
  </g>
</svg>
