<svg xmlns="http://www.w3.org/2000/svg" width="72" height="72" viewBox="0 0 72 72">
  <g id="phone" transform="translate(-574 753)">
    <g id="Path_86" data-name="Path 86" transform="translate(574 -753)" fill="none">
      <path d="M36,0A36,36,0,1,1,0,36,36,36,0,0,1,36,0Z" stroke="none"/>
      <path d="M 36 2 C 31.40914535522461 2 26.9566764831543 2.898674011230469 22.76627731323242 4.671066284179688 C 18.71782302856445 6.3834228515625 15.08151245117188 8.835220336914062 11.95836639404297 11.95836639404297 C 8.835220336914062 15.08151245117188 6.3834228515625 18.71782302856445 4.671066284179688 22.76627731323242 C 2.898674011230469 26.9566764831543 2 31.40914535522461 2 36 C 2 40.59085464477539 2.898674011230469 45.04331970214844 4.671066284179688 49.23372268676758 C 6.3834228515625 53.28217697143555 8.835220336914062 56.91848754882812 11.95836639404297 60.04163360595703 C 15.08151245117188 63.16477966308594 18.71782302856445 65.6165771484375 22.76627731323242 67.32893371582031 C 26.9566764831543 69.101318359375 31.40914535522461 70 36 70 C 40.59085464477539 70 45.04331970214844 69.101318359375 49.23372268676758 67.32893371582031 C 53.28217697143555 65.6165771484375 56.91848754882812 63.16477966308594 60.04163360595703 60.04163360595703 C 63.16477966308594 56.91848754882812 65.6165771484375 53.28217697143555 67.32893371582031 49.23372268676758 C 69.101318359375 45.04331970214844 70 40.59085464477539 70 36 C 70 31.40914535522461 69.101318359375 26.9566764831543 67.32893371582031 22.76627731323242 C 65.6165771484375 18.71782302856445 63.16477966308594 15.08151245117188 60.04163360595703 11.95836639404297 C 56.91848754882812 8.835220336914062 53.28217697143555 6.3834228515625 49.23372268676758 4.671066284179688 C 45.04331970214844 2.898674011230469 40.59085464477539 2 36 2 M 36 0 C 55.88225555419922 0 72 16.11774444580078 72 36 C 72 55.88225555419922 55.88225555419922 72 36 72 C 16.11774444580078 72 0 55.88225555419922 0 36 C 0 16.11774444580078 16.11774444580078 0 36 0 Z" stroke="none" fill="#dd7740"/>
    </g>
    <path id="phone-2" data-name="phone" d="M7.7,13.114a19.6,19.6,0,0,0,8.556,8.556l2.856-2.856a1.3,1.3,0,0,1,1.324-.325,14.749,14.749,0,0,0,4.635.74,1.3,1.3,0,0,1,1.3,1.3v4.544a1.3,1.3,0,0,1-1.3,1.3A22.071,22.071,0,0,1,3,4.3,1.3,1.3,0,0,1,4.3,3H8.842a1.3,1.3,0,0,1,1.3,1.3,14.749,14.749,0,0,0,.74,4.635,1.3,1.3,0,0,1-.325,1.324Z" transform="translate(595.315 -731.685)" fill="#dd7740"/>
  </g>
</svg>
